<svg xmlns="http://www.w3.org/2000/svg" width="414" height="148" viewBox="0 0 414 148">
    <g fill="none" fill-rule="evenodd" transform="translate(0 -5)">
        <path fill="#F9E6CD" d="M145.017 32.238l-2.37.535a1 1 0 0 1-1.128-1.393l1.016-2.206a1 1 0 0 0-.049-.93l-1.24-2.087a1 1 0 0 1 .976-1.504l2.412.284a1 1 0 0 0 .869-.333l1.602-1.825a1 1 0 0 1 1.732.464l.475 2.381a1 1 0 0 0 .585.724l2.231.96a1 1 0 0 1 .094 1.79l-2.118 1.187a1 1 0 0 0-.507.78l-.223 2.42a1 1 0 0 1-1.675.642l-1.783-1.648a1 1 0 0 0-.9-.24z"/>
        <path fill="#CDF9F9" d="M33.237 42.129l-3.404.079a1 1 0 0 1-.878-1.52l1.77-2.908a1 1 0 0 0 .146-.543l-.079-3.404a1 1 0 0 1 1.52-.878l2.908 1.77a1 1 0 0 0 .543.146l3.404-.079a1 1 0 0 1 .878 1.52l-1.77 2.908a1 1 0 0 0-.146.543l.079 3.404a1 1 0 0 1-1.52.878l-2.908-1.77a1 1 0 0 0-.543-.146zM279.237 13.129l-3.404.079a1 1 0 0 1-.878-1.52l1.77-2.908a1 1 0 0 0 .146-.543l-.079-3.404a1 1 0 0 1 1.52-.878l2.908 1.77a1 1 0 0 0 .543.146l3.404-.079a1 1 0 0 1 .878 1.52l-1.77 2.908a1 1 0 0 0-.146.543l.079 3.404a1 1 0 0 1-1.52.878l-2.908-1.77a1 1 0 0 0-.543-.146z"/>
        <circle cx="96" cy="23" r="4" fill="#CDF9F9"/>
        <circle cx="364" cy="15" r="6" fill="#CDF9F9"/>
        <circle cx="41.5" cy="119.5" r="7.5" fill="#CDF9F9"/>
        <path fill="#CDF9F9" d="M290.375 53.48l-4.374 2.525a1 1 0 0 1-1.486-.704l-1.265-7.667-1.068-6.473a1 1 0 0 1 1.621-.936l5.072 4.161 6.008 4.93a1 1 0 0 1-.134 1.639l-4.374 2.525z"/>
        <path stroke="#F9E6CD" stroke-linecap="round" stroke-width="2" d="M88 67c-9.749 5.784-2.79 13.956-15 20M389.892 102.826c-5.722 9.785-22.783 6.293-30.532 17.498M336.487 54.653c2.294 11.1 12.287 7.182 14.026 20.694"/>
    </g>
</svg>
