<svg xmlns="http://www.w3.org/2000/svg" width="1440" height="364" viewBox="0 0 1440 364">
    <g fill="none" fill-rule="evenodd">
        <path fill="#4756A6" fill-opacity=".097" d="M963.351 249.333C1082.456 185.377 1241.339 137.6 1440 106v258H397c258.462-12.488 447.246-50.71 566.351-114.667z"/>
        <path fill="#4756A6" fill-opacity=".204" d="M918.287 242.28C1057.114 195.425 1231.017 172 1440 172v192H214c330.699-34.294 565.461-74.868 704.287-121.72z"/>
        <path fill="#F26131" fill-opacity=".103" d="M476.649 249.333C357.544 185.377 198.661 137.6 0 106v258h1043c-258.462-12.488-447.246-50.71-566.351-114.667z"/>
        <path fill="#F26131" fill-opacity=".197" d="M521.713 242.28C382.886 195.425 208.983 172 0 172v192h1226c-330.699-34.294-565.461-74.868-704.287-121.72z"/>
    </g>
</svg>
