<?xml version="1.0" encoding="utf-8"?>
<!-- Generator: Adobe Illustrator 24.0.0, SVG Export Plug-In . SVG Version: 6.00 Build 0)  -->
<svg version="1.1" id="Layer_1" xmlns="http://www.w3.org/2000/svg" xmlns:xlink="http://www.w3.org/1999/xlink" x="0px" y="0px"
	 viewBox="0 0 1000 1000" style="enable-background:new 0 0 1000 1000;" xml:space="preserve">
<style type="text/css">
	.st0{fill:url(#SVGID_1_);}
	.st1{fill:url(#SVGID_2_);}
	.st2{fill:url(#SVGID_3_);}
	.st3{fill:url(#SVGID_4_);}
	.st4{fill:url(#SVGID_5_);}
	.st5{fill:url(#SVGID_6_);}
	.st6{fill:url(#SVGID_7_);}
	.st7{fill:url(#SVGID_8_);}
	.st8{fill:url(#SVGID_9_);}
	.st9{fill:url(#SVGID_10_);}
	.st10{fill:url(#SVGID_11_);}
	.st11{fill:url(#SVGID_12_);}
	.st12{fill:url(#SVGID_13_);}
	.st13{fill:url(#SVGID_14_);}
	.st14{fill:url(#SVGID_15_);}
	.st15{fill:url(#SVGID_16_);}
	.st16{fill:url(#SVGID_17_);}
	.st17{fill:url(#SVGID_18_);}
	.st18{fill:url(#SVGID_19_);}
	.st19{fill:url(#SVGID_20_);}
</style>
<linearGradient id="SVGID_1_" gradientUnits="userSpaceOnUse" x1="55.8064" y1="499.2071" x2="244.2913" y2="499.2071">
	<stop  offset="0" style="stop-color:#3DA4DC"/>
	<stop  offset="1" style="stop-color:#253677"/>
</linearGradient>
<path class="st0" d="M87.93,393.95c3.06,1.43,5.71,3.37,7.96,5.81l100.67,119.03c2.45,3.06,5.4,5.61,8.87,7.65
	c4.9,2.65,10.2,3.98,15.91,3.98c4.9,0,9.49-1.02,13.77-3.06c3.47-1.63,6.53-3.77,9.18-6.43v62.11v0.31c0,5.92-1.94,11.02-5.81,15.3
	c-4.69,5.1-10.4,7.65-17.14,7.65c-7.55,0-13.57-2.95-18.05-8.87l-100.06-117.8c-0.41-0.61-0.92-1.22-1.53-1.84
	c-2.65-2.85-5.71-5.1-9.18-6.73c-4.28-2.04-8.77-3.06-13.46-3.06h-0.61c-4.9,0-9.49,1.02-13.77,3.06c-3.47,1.64-6.43,3.88-8.87,6.73
	v-62.73c0-6.53,2.34-12.03,7.04-16.52c4.48-4.28,9.79-6.43,15.91-6.43C82.02,392.11,85.08,392.73,87.93,393.95z"/>
<linearGradient id="SVGID_2_" gradientUnits="userSpaceOnUse" x1="55.8064" y1="540.3616" x2="101.7037" y2="540.3616">
	<stop  offset="0" style="stop-color:#3DA4DC"/>
	<stop  offset="1" style="stop-color:#253677"/>
</linearGradient>
<path class="st1" d="M79.06,474.42c3.87,0,7.44,0.82,10.71,2.45c7.75,3.88,11.73,9.9,11.93,18.05v88.12v0.31
	c0,6.33-2.14,11.63-6.43,15.91c-4.49,4.69-10,7.04-16.52,7.04c-7.55,0-13.67-3.06-18.36-9.18c-3.06-4.08-4.59-8.67-4.59-13.77v-0.61
	v-87.82c0.2-5.71,2.55-10.6,7.04-14.69c4.28-3.87,9.49-5.81,15.61-5.81H79.06z"/>
<linearGradient id="SVGID_3_" gradientUnits="userSpaceOnUse" x1="198.394" y1="458.9326" x2="244.2913" y2="458.9326">
	<stop  offset="0" style="stop-color:#3DA4DC"/>
	<stop  offset="1" style="stop-color:#253677"/>
</linearGradient>
<path class="st2" d="M236.03,398.5c5.3,4.49,8.06,10.3,8.26,17.44v88.73c-0.21,6.33-2.96,11.53-8.26,15.61
	c-4.28,3.06-9.18,4.59-14.69,4.59c-7.96,0-14.18-2.85-18.66-8.57c-2.86-3.47-4.28-7.34-4.28-11.63v-88.73
	c0-6.53,2.34-12.03,7.04-16.52c4.28-4.28,9.59-6.43,15.91-6.43C226.85,392.99,231.75,394.83,236.03,398.5z"/>
<linearGradient id="SVGID_4_" gradientUnits="userSpaceOnUse" x1="488.1574" y1="499.2071" x2="646.3502" y2="499.2071">
	<stop  offset="0" style="stop-color:#3DA4DC"/>
	<stop  offset="1" style="stop-color:#253677"/>
</linearGradient>
<path class="st3" d="M597.7,605.08c-2.25-0.81-4.39-1.94-6.43-3.37c-2.65-2.24-4.8-4.9-6.43-7.96l-93.94-167.68
	c-1.84-3.47-2.75-7.14-2.75-11.02c0-6.32,2.24-11.73,6.73-16.22c4.48-4.48,9.89-6.73,16.22-6.73c4.28,0,8.26,1.12,11.93,3.37
	c3.67,2.25,6.53,5.2,8.57,8.87l78.03,139.22c1.42,2.65,3.16,5,5.2,7.04c1.84,1.64,3.77,3.06,5.81,4.28
	c0.41,0.21,0.71,0.41,0.92,0.61c3.47,1.84,7.24,2.96,11.32,3.37c1.02,0,2.04,0,3.06,0c3.47,0,6.93-0.61,10.4-1.84l-20.5,36.41
	c-1.84,3.67-4.39,6.63-7.65,8.87c-3.88,2.65-8.16,3.98-12.85,3.98C602.7,606.3,600.15,605.89,597.7,605.08z"/>
<linearGradient id="SVGID_5_" gradientUnits="userSpaceOnUse" x1="613.5723" y1="472.1276" x2="723.4199" y2="472.1276">
	<stop  offset="0" style="stop-color:#3DA4DC"/>
	<stop  offset="1" style="stop-color:#253677"/>
</linearGradient>
<path class="st4" d="M636.83,552.14c-4.08,0-7.96-1.02-11.63-3.06c-5.31-3.06-8.87-7.54-10.71-13.46c-0.61-2.24-0.92-4.38-0.92-6.43
	c0-3.47,0.71-6.73,2.14-9.79l64.26-115.05c2.04-3.67,4.9-6.63,8.57-8.87c3.67-2.24,7.65-3.37,11.93-3.37
	c6.32,0,11.83,2.35,16.52,7.04c4.28,4.49,6.43,9.79,6.43,15.91c0,3.88-1.02,7.55-3.06,11.02L656.1,541.13
	c-4.08,7.14-10.3,10.81-18.66,11.02C637.23,552.14,637.03,552.14,636.83,552.14z"/>
<linearGradient id="SVGID_6_" gradientUnits="userSpaceOnUse" x1="728.3499" y1="499.207" x2="774.2472" y2="499.207">
	<stop  offset="0" style="stop-color:#3DA4DC"/>
	<stop  offset="1" style="stop-color:#253677"/>
</linearGradient>
<path class="st5" d="M768.74,483.91c2.45,2.86,4.08,6.23,4.9,10.1c0.41,1.63,0.61,3.37,0.61,5.2c0,2.04-0.21,4.08-0.61,6.12
	c-0.82,3.06-2.35,5.92-4.59,8.57c-4.49,5.51-10.4,8.26-17.75,8.26c-7.55,0-13.57-2.85-18.05-8.57c-1.84-2.24-3.17-4.79-3.98-7.65
	c-0.61-2.04-0.92-4.18-0.92-6.43c0-2.45,0.31-4.79,0.92-7.04c1.02-3.47,2.75-6.43,5.2-8.87c4.48-4.9,10.1-7.34,16.83-7.34
	C758.23,476.26,764.04,478.81,768.74,483.91z"/>
<linearGradient id="SVGID_7_" gradientUnits="userSpaceOnUse" x1="730.7977" y1="499.2071" x2="941.9254" y2="499.2071">
	<stop  offset="0" style="stop-color:#3DA4DC"/>
	<stop  offset="1" style="stop-color:#253677"/>
</linearGradient>
<path class="st6" d="M768.13,416.13c19.58-16.01,41.92-24.02,67.01-24.02c19.38,0,37.28,4.8,53.7,14.38
	c16.42,9.59,29.37,22.59,38.86,39.01c9.49,16.42,14.23,34.32,14.23,53.7c0,19.38-4.74,37.28-14.23,53.7
	c-9.49,16.42-22.44,29.43-38.86,39.01c-16.42,9.59-34.32,14.38-53.7,14.38c-25.3,0-47.73-8-67.32-24.02
	c-19.58-16.01-31.93-36.36-37.02-61.04c2.24,2.25,4.9,4.08,7.96,5.51c4.08,1.64,8.26,2.45,12.55,2.45c5.91,0,11.42-1.53,16.52-4.59
	c3.47-2.45,6.32-5.4,8.57-8.87c3.67,13.26,10.96,24.02,21.88,32.28c10.91,8.26,23.2,12.39,36.87,12.39
	c16.93,0,31.31-5.97,43.14-17.9c11.83-11.93,17.75-26.36,17.75-43.3c0-16.93-5.92-31.36-17.75-43.3
	c-11.83-11.93-26.21-17.9-43.14-17.9c-13.67,0-25.91,4.18-36.72,12.55c-10.81,8.37-18.05,19.08-21.72,32.13
	c-3.06-4.48-7.04-7.96-11.93-10.4c-4.28-2.24-8.77-3.37-13.46-3.37c-3.67,0-7.24,0.72-10.71,2.14c-3.67,1.43-6.94,3.47-9.79,6.12
	C736.1,452.5,748.54,432.15,768.13,416.13z"/>
<linearGradient id="SVGID_8_" gradientUnits="userSpaceOnUse" x1="293.5574" y1="571.2004" x2="469.6137" y2="571.2004">
	<stop  offset="0" style="stop-color:#3DA4DC"/>
	<stop  offset="1" style="stop-color:#253677"/>
</linearGradient>
<path class="st7" d="M366.25,614.53c-3.87-1.67-5.34-4.5-5.01-8.42c0.2-2.36,0.84-5.28-0.34-6.97c-1.09-1.55-4.37-1.72-6.63-2.61
	c-2.48-0.98-4.95-2-7.33-3.17c-1.16-0.57-1.88-0.65-2.83,0.34c-1.7,1.77-3.56,3.42-5.4,5.07c-3.09,2.77-6.98,2.78-10.03-0.04
	c-6.25-5.77-12.47-11.58-18.66-17.41c-3.01-2.84-2.99-6.47-0.02-9.34c1.83-1.76,3.68-3.51,5.59-5.19c0.78-0.69,0.92-1.23,0.38-2.13
	c-2.39-3.98-4.26-8.17-5.63-12.55c-0.29-0.92-0.75-1.21-1.74-1.19c-2.63,0.05-5.26,0.04-7.89,0.01c-4.25-0.05-7.1-2.64-7.13-6.56
	c-0.04-5.46-0.01-10.92-0.01-16.51c12.11,2.61,24.12,4.76,36.2,6.51c4.64,0.67,4.63,0.74,5.3,4.89
	c3.08,19.07,20.45,34.53,41.11,36.6c26.44,2.65,49.61-14.81,52.29-39.49c0.21-1.96,1.65-1.55,2.69-1.69
	c11-1.47,21.91-3.4,32.77-5.61c1.83-0.37,3.65-0.76,5.64-1.18c0,5.9,0.14,11.71-0.06,17.51c-0.11,3.16-3.19,5.46-6.8,5.52
	c-2.71,0.05-5.41,0.04-8.12-0.01c-0.98-0.02-1.46,0.24-1.75,1.17c-1.37,4.37-3.23,8.57-5.62,12.55c-0.54,0.89-0.42,1.44,0.37,2.13
	c1.91,1.68,3.77,3.42,5.6,5.19c2.97,2.88,3.01,6.5-0.01,9.35c-6.18,5.84-12.4,11.64-18.66,17.4c-3.14,2.89-7,2.8-10.19-0.1
	c-1.83-1.67-3.65-3.34-5.41-5.07c-0.71-0.7-1.27-0.93-2.27-0.39c-4.24,2.28-8.76,3.98-13.44,5.27c-1.15,0.32-1.35,0.83-1.32,1.78
	c0.05,1.96-0.14,3.94,0.05,5.89c0.38,3.92-1.13,6.75-5,8.42C386.7,614.53,376.47,614.53,366.25,614.53z"/>
<linearGradient id="SVGID_9_" gradientUnits="userSpaceOnUse" x1="280.0148" y1="515.1603" x2="483.1523" y2="515.1603">
	<stop  offset="0" style="stop-color:#3DA4DC"/>
	<stop  offset="1" style="stop-color:#253677"/>
</linearGradient>
<path class="st8" d="M381.75,499.39c31.05,0,62.11,0,93.16,0c5.82,0,8.23,2.23,8.24,7.6c0,1.47,0.01,2.95,0,4.42
	c-0.04,3.8-1.8,5.91-5.85,6.92c-8.11,2.03-16.3,3.81-24.53,5.34c-24.44,4.56-49.08,7.47-74.05,7.25
	c-15.27-0.13-30.45-1.52-45.56-3.59c-15.83-2.17-31.47-5.14-46.94-8.94c-4.58-1.13-6.17-3.08-6.19-7.5c0-1.68-0.03-3.37,0.01-5.05
	c0.08-3.85,2.82-6.41,6.98-6.44c6.84-0.04,13.68-0.01,20.53-0.01C332.28,499.39,357.02,499.39,381.75,499.39z"/>
<linearGradient id="SVGID_10_" gradientUnits="userSpaceOnUse" x1="295.0612" y1="451.7122" x2="468.1658" y2="451.7122">
	<stop  offset="0" style="stop-color:#3DA4DC"/>
	<stop  offset="1" style="stop-color:#253677"/>
</linearGradient>
<path class="st9" d="M468.08,491.27c-4.85-23.06-17.23-41.32-37.78-54.42c-1.76-1.2-3.62-2.39-5.56-3.53
	c-0.02-0.01-0.05-0.03-0.07-0.04c-2.64-1.55-5.43-3.01-8.36-4.31l-24.26,50.55c-3.27-1.5-4.55-5.05-2.79-8.76
	c7.52-15.77,15.09-31.52,22.62-47.29c2.42-5.06,0.59-8.67-5.11-10.02c-17.02-4.04-34.04-3.95-51.03,0.16c-4.8,1.16-6.75,5-4.74,9.3
	c1.98,4.23,4.05,8.42,6.06,12.63c5.65,11.8,11.31,23.61,16.94,35.42c1.39,2.91,0.95,5.38-1.14,7.37c-0.61,0.58-1.28,1.02-1.98,1.33
	l-24.33-50.7c-7.34,3.26-13.84,7.53-19.13,11.62c-16.99,12.5-27.64,29.16-32.09,49.89c-0.52,2.44-0.49,2.45,2.15,2.45
	c28.04,0,56.08,0,84.12,0c16.24,0,32.48,0,48.71,0c12.03,0,24.06-0.02,36.09,0.02C467.77,492.95,468.41,492.85,468.08,491.27z"/>
</svg>
